<svg width="530" height="530" viewBox="0 0 530 530" fill="none" xmlns="http://www.w3.org/2000/svg">
<g filter="url(#filter0_f_418_1359)">
<circle cx="265" cy="265" r="114.44" fill="#C1CBFF"/>
</g>
<circle cx="265" cy="265" r="125" fill="#EFF2FF" stroke="white" stroke-width="12"/>
<mask id="mask0_418_1359" style="mask-type:alpha" maskUnits="userSpaceOnUse" x="141" y="141" width="248" height="248">
<circle cx="265" cy="265" r="123.312" fill="white"/>
</mask>
<g mask="url(#mask0_418_1359)">
<path fill-rule="evenodd" clip-rule="evenodd" d="M278.536 219.014H285.471C293.273 219.014 299.598 225.339 299.598 233.141C299.598 240.943 293.273 247.268 285.471 247.268H243.346C235.544 247.268 229.219 240.943 229.219 233.141C229.219 225.339 235.544 219.014 243.346 219.014H250.281L250.281 212.592C250.281 204.79 256.606 198.465 264.408 198.465C272.211 198.465 278.536 204.79 278.536 212.592V219.014Z" fill="url(#paint0_linear_418_1359)"/>
<path fill-rule="evenodd" clip-rule="evenodd" d="M224.352 232.768H193.033C181.988 232.768 173.033 241.722 173.033 252.768V394.926C173.033 405.971 181.987 414.926 193.033 414.926H337.557C348.603 414.926 357.557 405.971 357.557 394.926V252.768C357.557 241.722 348.603 232.768 337.557 232.768H304.463C304.762 234 304.92 235.287 304.92 236.612C304.92 245.594 297.638 252.876 288.656 252.876H240.159C231.177 252.876 223.895 245.594 223.895 236.612C223.895 235.287 224.053 234 224.352 232.768Z" fill="url(#paint1_linear_418_1359)"/>
<rect x="206.745" y="270.619" width="115.919" height="25.4312" rx="10" fill="white"/>
<rect x="217.391" y="318.524" width="87.5305" height="7.09707" rx="3.54853" fill="white"/>
<circle cx="210.294" cy="322.072" r="3.54853" fill="white"/>
<rect x="217.391" y="348.095" width="60.3251" height="7.09707" rx="3.54853" fill="white"/>
<circle cx="210.294" cy="351.643" r="3.54853" fill="white"/>
<circle cx="309.061" cy="180.131" r="10.0542" fill="url(#paint2_linear_418_1359)"/>
<circle cx="202.9" cy="201.718" r="6.20993" transform="rotate(-90 202.9 201.718)" fill="url(#paint3_linear_418_1359)"/>
<circle cx="345.434" cy="218.869" r="6.20993" transform="rotate(-90 345.434 218.869)" fill="url(#paint4_linear_418_1359)"/>
</g>
<g filter="url(#filter1_f_418_1359)">
<circle cx="382.694" cy="198.169" r="28.684" fill="#06A77D" fill-opacity="0.7"/>
</g>
<circle cx="376.188" cy="191.664" r="28.684" fill="url(#paint5_linear_418_1359)"/>
<path d="M364.8 190.625L365.507 191.332L364.8 190.625C364.446 190.979 364.247 191.459 364.247 191.959C364.247 192.46 364.446 192.94 364.8 193.294C365.154 193.648 365.634 193.846 366.134 193.846H374.006V201.718C374.006 202.218 374.204 202.698 374.558 203.052L375.265 202.345L374.558 203.052C374.912 203.406 375.392 203.605 375.893 203.605C376.393 203.605 376.873 203.406 377.227 203.052L376.52 202.345L377.227 203.052C377.581 202.698 377.78 202.218 377.78 201.718V193.846H385.651C386.152 193.846 386.632 193.648 386.986 193.294L386.278 192.587L386.986 193.294C387.339 192.94 387.538 192.46 387.538 191.959C387.538 191.459 387.339 190.979 386.986 190.625L386.278 191.332L386.986 190.625C386.632 190.271 386.152 190.072 385.651 190.072H377.78V182.201C377.78 181.7 377.581 181.22 377.227 180.866C376.873 180.513 376.393 180.314 375.893 180.314C375.392 180.314 374.912 180.513 374.558 180.866L375.265 181.574L374.558 180.866C374.204 181.22 374.006 181.7 374.006 182.201V190.072H366.134C365.634 190.072 365.154 190.271 364.8 190.625Z" fill="white" stroke="white" stroke-width="2"/>
<defs>
<filter id="filter0_f_418_1359" x="0.55957" y="0.559814" width="528.88" height="528.88" filterUnits="userSpaceOnUse" color-interpolation-filters="sRGB">
<feFlood flood-opacity="0" result="BackgroundImageFix"/>
<feBlend mode="normal" in="SourceGraphic" in2="BackgroundImageFix" result="shape"/>
<feGaussianBlur stdDeviation="75" result="effect1_foregroundBlur_418_1359"/>
</filter>
<filter id="filter1_f_418_1359" x="314.01" y="129.485" width="137.368" height="137.368" filterUnits="userSpaceOnUse" color-interpolation-filters="sRGB">
<feFlood flood-opacity="0" result="BackgroundImageFix"/>
<feBlend mode="normal" in="SourceGraphic" in2="BackgroundImageFix" result="shape"/>
<feGaussianBlur stdDeviation="20" result="effect1_foregroundBlur_418_1359"/>
</filter>
<linearGradient id="paint0_linear_418_1359" x1="264.408" y1="198.465" x2="264.408" y2="247.268" gradientUnits="userSpaceOnUse">
<stop stop-color="#14213D"/>
<stop offset="1" stop-color="#28437D"/>
</linearGradient>
<linearGradient id="paint1_linear_418_1359" x1="187.227" y1="246.37" x2="301.668" y2="442.131" gradientUnits="userSpaceOnUse">
<stop stop-color="#647BAD"/>
<stop offset="1" stop-color="#14213D"/>
</linearGradient>
<linearGradient id="paint2_linear_418_1359" x1="309.061" y1="170.077" x2="309.061" y2="190.185" gradientUnits="userSpaceOnUse">
<stop stop-color="#B0BCFF"/>
<stop offset="1" stop-color="#B0BCFF" stop-opacity="0"/>
</linearGradient>
<linearGradient id="paint3_linear_418_1359" x1="202.9" y1="195.508" x2="202.9" y2="207.928" gradientUnits="userSpaceOnUse">
<stop stop-color="#B0BCFF"/>
<stop offset="1" stop-color="#B0BCFF" stop-opacity="0"/>
</linearGradient>
<linearGradient id="paint4_linear_418_1359" x1="345.434" y1="212.659" x2="345.434" y2="225.079" gradientUnits="userSpaceOnUse">
<stop stop-color="#B0BCFF" stop-opacity="0.53"/>
<stop offset="1" stop-color="#B0BCFF" stop-opacity="0"/>
</linearGradient>
<linearGradient id="paint5_linear_418_1359" x1="376.188" y1="162.98" x2="376.188" y2="220.348" gradientUnits="userSpaceOnUse">
<stop stop-color="#47CAA8"/>
<stop offset="1" stop-color="#06A77D"/>
</linearGradient>
</defs>
</svg>
