<svg width="28" height="28" viewBox="0 0 28 28" fill="none" xmlns="http://www.w3.org/2000/svg">
<path d="M2.00391 8.75C2.00391 7.75544 2.39899 6.80161 3.10226 6.09835C3.80552 5.39509 4.75934 5 5.75391 5H22.2499C23.2445 5 24.1983 5.39509 24.9016 6.09835C25.6048 6.80161 25.9999 7.75544 25.9999 8.75V15.402C25.5563 14.9228 25.0521 14.5036 24.4999 14.155V11H3.50491V19.25C3.50491 19.8467 3.74196 20.419 4.16392 20.841C4.58587 21.2629 5.15817 21.5 5.75491 21.5H13.0669C13.1376 22.02 13.2576 22.52 13.4269 23H5.75491C4.76034 23 3.80652 22.6049 3.10326 21.9017C2.39999 21.1984 2.00491 20.2446 2.00491 19.25L2.00391 8.75ZM5.75391 6.5C5.15717 6.5 4.58487 6.73705 4.16292 7.15901C3.74096 7.58097 3.50391 8.15326 3.50391 8.75V9.5H24.4999V8.75C24.4999 8.15326 24.2629 7.58097 23.8409 7.15901C23.4189 6.73705 22.8466 6.5 22.2499 6.5H5.75391ZM26.9999 20.5C26.9999 22.2239 26.3151 23.8772 25.0961 25.0962C23.8771 26.3152 22.2238 27 20.4999 27C18.776 27 17.1227 26.3152 15.9037 25.0962C14.6847 23.8772 13.9999 22.2239 13.9999 20.5C13.9999 18.7761 14.6847 17.1228 15.9037 15.9038C17.1227 14.6848 18.776 14 20.4999 14C22.2238 14 23.8771 14.6848 25.0961 15.9038C26.3151 17.1228 26.9999 18.7761 26.9999 20.5ZM20.4999 16.5C20.3673 16.5 20.2401 16.5527 20.1464 16.6464C20.0526 16.7402 19.9999 16.8674 19.9999 17V20.5C19.9999 20.6326 20.0526 20.7598 20.1464 20.8536C20.2401 20.9473 20.3673 21 20.4999 21H23.4999C23.6325 21 23.7597 20.9473 23.8535 20.8536C23.9472 20.7598 23.9999 20.6326 23.9999 20.5C23.9999 20.3674 23.9472 20.2402 23.8535 20.1464C23.7597 20.0527 23.6325 20 23.4999 20H20.9999V17C20.9999 16.8674 20.9472 16.7402 20.8535 16.6464C20.7597 16.5527 20.6325 16.5 20.4999 16.5Z" fill="white"/>
</svg>
