<svg width="25" height="22" viewBox="0 0 25 22" fill="none" xmlns="http://www.w3.org/2000/svg">
<path d="M12.5 15C12.2348 15 11.9804 14.8947 11.7929 14.7071C11.6054 14.5196 11.5 14.2652 11.5 14V8.00002C11.5 7.7348 11.6054 7.48044 11.7929 7.29291C11.9804 7.10537 12.2348 7.00002 12.5 7.00002C12.7652 7.00002 13.0196 7.10537 13.2071 7.29291C13.3946 7.48044 13.5 7.7348 13.5 8.00002V14C13.5 14.2652 13.3946 14.5196 13.2071 14.7071C13.0196 14.8947 12.7652 15 12.5 15Z" fill="#14213D"/>
<path d="M15.5 12H9.5C9.23478 12 8.98043 11.8947 8.79289 11.7071C8.60536 11.5196 8.5 11.2652 8.5 11C8.5 10.7348 8.60536 10.4804 8.79289 10.2929C8.98043 10.1054 9.23478 10 9.5 10H15.5C15.7652 10 16.0196 10.1054 16.2071 10.2929C16.3946 10.4804 16.5 10.7348 16.5 11C16.5 11.2652 16.3946 11.5196 16.2071 11.7071C16.0196 11.8947 15.7652 12 15.5 12Z" fill="#14213D"/>
<path d="M5 18.5H3C2.20435 18.5 1.44129 18.1839 0.878679 17.6213C0.31607 17.0587 0 16.2956 0 15.5V6.5C0 5.70435 0.31607 4.94129 0.878679 4.37868C1.44129 3.81607 2.20435 3.5 3 3.5H5C5.26522 3.5 5.51957 3.60536 5.70711 3.79289C5.89464 3.98043 6 4.23478 6 4.5C6 4.9 6 17.18 6 17.5C6 17.7652 5.89464 18.0196 5.70711 18.2071C5.51957 18.3946 5.26522 18.5 5 18.5ZM3 5.5C2.73478 5.5 2.48043 5.60536 2.29289 5.79289C2.10536 5.98043 2 6.23478 2 6.5V15.5C2 15.7652 2.10536 16.0196 2.29289 16.2071C2.48043 16.3946 2.73478 16.5 3 16.5H4C4 14.04 4 7.96 4 5.5H3Z" fill="#14213D"/>
<path d="M21.4996 18.5H19.4996C19.3635 18.5002 19.2288 18.4726 19.1037 18.419C18.9787 18.3653 18.8659 18.2867 18.7723 18.1879C18.6787 18.0892 18.6062 17.9723 18.5593 17.8446C18.5124 17.7169 18.4921 17.5809 18.4996 17.445C18.4996 17.18 18.4996 4.82 18.4996 4.52C18.4996 4.25479 18.6049 4.00043 18.7925 3.8129C18.98 3.62536 19.2343 3.52 19.4996 3.52H21.4996C22.2952 3.52 23.0583 3.83607 23.6209 4.39868C24.1835 4.96129 24.4996 5.72435 24.4996 6.52V15.5C24.4996 16.2957 24.1835 17.0587 23.6209 17.6213C23.0583 18.1839 22.2952 18.5 21.4996 18.5ZM20.4996 16.5H21.4996C21.7648 16.5 22.0191 16.3946 22.2067 16.2071C22.3942 16.0196 22.4996 15.7652 22.4996 15.5V6.5C22.4996 6.23479 22.3942 5.98043 22.2067 5.7929C22.0191 5.60536 21.7648 5.5 21.4996 5.5H20.4996C20.4996 7.96 20.4996 14.04 20.4996 16.5Z" fill="#14213D"/>
<path d="M17.5 22H7C6.20435 22 5.44129 21.6839 4.87868 21.1213C4.31607 20.5587 4 19.7956 4 19V3C4 2.20435 4.31607 1.44129 4.87868 0.878679C5.44129 0.31607 6.20435 0 7 0H17.5C18.2956 0 19.0587 0.31607 19.6213 0.878679C20.1839 1.44129 20.5 2.20435 20.5 3V19C20.5 19.7956 20.1839 20.5587 19.6213 21.1213C19.0587 21.6839 18.2956 22 17.5 22ZM7 2C6.73478 2 6.48043 2.10536 6.29289 2.29289C6.10536 2.48043 6 2.73478 6 3V19C6 19.2652 6.10536 19.5196 6.29289 19.7071C6.48043 19.8946 6.73478 20 7 20H17.5C17.7652 20 18.0196 19.8946 18.2071 19.7071C18.3946 19.5196 18.5 19.2652 18.5 19V3C18.5 2.73478 18.3946 2.48043 18.2071 2.29289C18.0196 2.10536 17.7652 2 17.5 2H7Z" fill="#14213D"/>
</svg>
