<svg width="139" height="139" viewBox="0 0 139 139" fill="none" xmlns="http://www.w3.org/2000/svg">
<g clip-path="url(#clip0_423_729)">
<circle cx="69.5" cy="69.5" r="69.5" fill="#EDEDED"/>
<path d="M97.272 69.4711C106.565 68.1195 105.624 86.5713 96.4486 83.6331C95.7428 85.9249 94.6841 88.0991 93.3902 90.0971C123.327 110.194 107.565 153.62 69.5702 153.62C31.4581 153.62 15.8722 110.194 45.7502 90.0971C44.4563 88.0991 43.3976 85.9249 42.6918 83.6331C35.9869 85.8074 32.0462 74.4072 38.2218 70.3525L41.8684 69.5299C43.3387 61.8906 37.8689 46.6121 41.6331 38.8553C43.1034 35.8583 45.6913 34.5068 50.0437 35.8583C49.5733 25.6923 63.6888 20.9324 69.4527 29.2768C75.0989 21.4613 89.0379 24.8108 88.8027 36.0934C106.388 27.9841 96.3899 65.1814 97.272 69.4711ZM97.7423 72.468L97.2132 80.7537C101.624 82.4578 102.33 71.7628 97.7423 72.468ZM94.8605 74.9949C94.8605 71.9391 94.8017 70.7052 93.5666 68.7072C81.4507 48.7276 71.511 60.7741 68.8055 59.1875C54.6899 51.1369 48.3966 60.3627 45.0441 68.8834L44.2796 74.9949C44.2796 98.7941 74.5105 109.371 89.3318 90.6847C92.8019 86.3362 94.8605 80.8124 94.8605 74.9949ZM77.3335 102.144C72.1578 103.613 66.6293 103.554 61.4536 102.026C65.9823 109.665 68.2173 121.359 69.3348 131.525C70.5111 121.418 72.8048 109.783 77.3335 102.144ZM41.8682 80.7537L41.3979 72.468C36.7516 71.7628 37.4572 82.5166 41.8682 80.7537Z" fill="url(#paint0_linear_423_729)"/>
<path d="M84.6849 80.4598C84.6849 82.399 81.6854 82.399 81.6854 80.4598C81.6854 77.5804 76.9214 77.5804 76.9214 80.4598C76.9214 82.399 73.9219 82.399 73.9219 80.4598C73.9219 73.6433 84.6849 73.6433 84.6849 80.4598Z" fill="#787878"/>
<path d="M63.517 80.4598C63.517 82.399 60.5174 82.399 60.5174 80.4598C60.5174 77.5804 55.6946 77.5804 55.6946 80.4598C55.6946 82.399 52.7539 82.399 52.7539 80.4598C52.7539 73.6433 63.517 73.6433 63.517 80.4598Z" fill="#787878"/>
<path d="M77.1 89.2745C70.0423 93.3292 65.9253 91.7426 61.3965 89.7443C63.2786 100.145 76.6296 98.4413 77.1 89.2745Z" fill="#787878"/>
</g>
<defs>
<linearGradient id="paint0_linear_423_729" x1="69.5685" y1="25" x2="69.5685" y2="153.62" gradientUnits="userSpaceOnUse">
<stop stop-color="#787878"/>
<stop offset="1" stop-color="#484848"/>
</linearGradient>
<clipPath id="clip0_423_729">
<path d="M0 69.5C0 31.1162 31.1162 0 69.5 0C107.884 0 139 31.1162 139 69.5C139 107.884 107.884 139 69.5 139C31.1162 139 0 107.884 0 69.5Z" fill="white"/>
</clipPath>
</defs>
</svg>
