<svg width="32" height="32" viewBox="0 0 32 32" fill="none" xmlns="http://www.w3.org/2000/svg">
<path d="M20 10.6667H20.0133M16.6667 28H8C6.93913 28 5.92172 27.5786 5.17157 26.8284C4.42143 26.0783 4 25.0609 4 24V8C4 6.93913 4.42143 5.92172 5.17157 5.17157C5.92172 4.42143 6.93913 4 8 4H24C25.0609 4 26.0783 4.42143 26.8284 5.17157C27.5786 5.92172 28 6.93913 28 8V16.6667" stroke="#14213D" stroke-opacity="0.6" stroke-width="1.8" stroke-linecap="round" stroke-linejoin="round"/>
<path d="M4 21.3333L10.6667 14.6667C11.904 13.476 13.4293 13.476 14.6667 14.6667L20 20" stroke="#14213D" stroke-opacity="0.6" stroke-width="1.8" stroke-linecap="round" stroke-linejoin="round"/>
<path d="M18.668 18.6667L20.0013 17.3333C20.8946 16.4747 21.9346 16.2347 22.9106 16.6133M21.3346 25.3333H29.3346M25.3346 21.3333V29.3333" stroke="#14213D" stroke-opacity="0.6" stroke-width="1.8" stroke-linecap="round" stroke-linejoin="round"/>
</svg>
