<svg width="31" height="32" viewBox="0 0 31 32" fill="none" xmlns="http://www.w3.org/2000/svg">
<path d="M10.3333 28C11.0185 28 11.6755 27.719 12.16 27.219C12.6445 26.7189 12.9167 26.0406 12.9167 25.3333L12.9167 17.3333C12.9167 16.6261 12.6445 15.9478 12.16 15.4477C11.6755 14.9476 11.0185 14.6667 10.3333 14.6667C9.99075 14.6667 9.66221 14.5262 9.41997 14.2761C9.17774 14.0261 9.04166 13.687 9.04166 13.3333L9.04166 12C9.04166 11.2928 9.31383 10.6145 9.7983 10.1144C10.2828 9.61428 10.9398 9.33333 11.625 9.33333C11.9676 9.33333 12.2961 9.19286 12.5383 8.94281C12.7806 8.69276 12.9167 8.35362 12.9167 8L12.9167 5.33333C12.9167 4.97971 12.7806 4.64057 12.5383 4.39052C12.2961 4.14047 11.9676 4 11.625 4C9.56956 4 7.59832 4.84285 6.14491 6.34314C4.6915 7.84343 3.87499 9.87827 3.87499 12L3.87499 25.3333C3.87499 26.0406 4.14716 26.7189 4.63163 27.219C5.1161 27.719 5.77318 28 6.45832 28L10.3333 28Z" stroke="#E5612F" stroke-width="4.125" stroke-linecap="round" stroke-linejoin="round"/>
<path d="M24.5417 28C25.2268 28 25.8839 27.719 26.3684 27.219C26.8528 26.7189 27.125 26.0406 27.125 25.3333L27.125 17.3333C27.125 16.6261 26.8528 15.9478 26.3684 15.4477C25.8839 14.9476 25.2268 14.6667 24.5417 14.6667C24.1991 14.6667 23.8706 14.5262 23.6283 14.2761C23.3861 14.0261 23.25 13.687 23.25 13.3333L23.25 12C23.25 11.2928 23.5222 10.6145 24.0066 10.1144C24.4911 9.61428 25.1482 9.33333 25.8333 9.33333C26.1759 9.33333 26.5044 9.19286 26.7467 8.94281C26.9889 8.69276 27.125 8.35362 27.125 8L27.125 5.33333C27.125 4.97971 26.9889 4.64057 26.7467 4.39052C26.5044 4.14047 26.1759 4 25.8333 4C23.7779 4 21.8067 4.84285 20.3533 6.34314C18.8998 7.84343 18.0833 9.87827 18.0833 12L18.0833 25.3333C18.0833 26.0406 18.3555 26.7189 18.84 27.219C19.3244 27.719 19.9815 28 20.6667 28L24.5417 28Z" stroke="#E5612F" stroke-width="4.125" stroke-linecap="round" stroke-linejoin="round"/>
</svg>
