<svg width="83" height="89" viewBox="0 0 83 89" fill="none" xmlns="http://www.w3.org/2000/svg">
<path d="M27.6666 81.5834C29.5766 81.5834 31.125 79.9231 31.125 77.875C31.125 75.827 29.5766 74.1667 27.6666 74.1667C25.7567 74.1667 24.2083 75.827 24.2083 77.875C24.2083 79.9231 25.7567 81.5834 27.6666 81.5834Z" stroke="#E5612F" stroke-width="3.75" stroke-linecap="round" stroke-linejoin="round"/>
<path d="M65.7083 81.5834C67.6183 81.5834 69.1667 79.9231 69.1667 77.875C69.1667 75.827 67.6183 74.1667 65.7083 74.1667C63.7983 74.1667 62.25 75.827 62.25 77.875C62.25 79.9231 63.7983 81.5834 65.7083 81.5834Z" stroke="#E5612F" stroke-width="3.75" stroke-linecap="round" stroke-linejoin="round"/>
<path d="M7.0896 7.60211H14.0063L23.2054 53.6596C23.5429 55.3464 24.4182 56.8543 25.6806 57.9237C26.943 58.9931 28.5136 59.5572 30.1221 59.5188H63.9446C65.5187 59.5161 67.0449 58.9376 68.2711 57.8791C69.4972 56.8205 70.3499 55.3452 70.6884 53.6967L76.3946 26.1438H17.7067" stroke="#E5612F" stroke-width="3.75" stroke-linecap="round" stroke-linejoin="round"/>
</svg>
