<svg width="78" height="84" viewBox="0 0 78 84" fill="none" xmlns="http://www.w3.org/2000/svg">
<path d="M9.75 38.5H19.5C21.2239 38.5 22.8772 39.2375 24.0962 40.5503C25.3152 41.863 26 43.6435 26 45.5V56C26 57.8565 25.3152 59.637 24.0962 60.9497C22.8772 62.2625 21.2239 63 19.5 63H16.25C14.5261 63 12.8728 62.2625 11.6538 60.9497C10.4348 59.637 9.75 57.8565 9.75 56V38.5ZM9.75 38.5C9.75 34.3634 10.5066 30.2672 11.9765 26.4455C13.4465 22.6237 15.601 19.1512 18.3171 16.2261C21.0332 13.3011 24.2577 10.9808 27.8065 9.39779C31.3553 7.81477 35.1588 7 39 7C42.8412 7 46.6447 7.81477 50.1935 9.39779C53.7423 10.9808 56.9668 13.3011 59.6829 16.2261C62.399 19.1512 64.5535 22.6237 66.0235 26.4455C67.4934 30.2672 68.25 34.3634 68.25 38.5M68.25 38.5V56C68.25 57.8565 67.5652 59.637 66.3462 60.9497C65.1272 62.2625 63.4739 63 61.75 63H58.5C56.7761 63 55.1228 62.2625 53.9038 60.9497C52.6848 59.637 52 57.8565 52 56V45.5C52 43.6435 52.6848 41.863 53.9038 40.5503C55.1228 39.2375 56.7761 38.5 58.5 38.5H68.25Z" stroke="#E5612F" stroke-width="3.75" stroke-linecap="round" stroke-linejoin="round"/>
<path d="M68.25 56V63C68.25 66.713 66.8804 70.274 64.4424 72.8995C62.0044 75.525 58.6978 77 55.25 77H39" stroke="#E5612F" stroke-width="3.75" stroke-linecap="round" stroke-linejoin="round"/>
</svg>
